<?xml version="1.0" encoding="UTF-8"?>
<svg id="Layer_1" data-name="Layer 1" xmlns="http://www.w3.org/2000/svg" viewBox="0 0 956.46 205.1">
  <defs>
    <style>
      .cls-1 {
        fill: #fff;
      }
    </style>
  </defs>
  <path class="cls-1" d="M331.57,168.32c.2,0,.36.16.36.36h0v27.02c0,.22-.17.39-.39.39h-78.39c-.3,0-.54-.24-.54-.54h0V5.14c0-.4.33-.73.73-.73h0c19.03.04,31.93,0,38.68-.13,16.26-.3,27.6-.02,39.15-3.26.33-.09.67.1.77.43.02.06.02.12.02.17v27.22c0,.25-.2.45-.45.46l-49.96,1.64c-.21.01-.38.19-.39.4l-1.22,47.57c0,.28.21.5.49.51,0,0,0,0,.01,0h39.93c.38,0,.69.31.69.69v26.14c0,.51-.4.92-.91.94l-38.14,1.25c-.4.01-.72.33-.73.73l-1.49,58.33c-.01.44.34.81.78.82,0,0,.01,0,.02,0h50.98Z"/>
  <path class="cls-1" d="M1.61,4.46c9.91-.15,16.16.02,23.05-1.69.63-.16,1.26.22,1.43.85.97,3.69,1.5,7.52,1.6,11.5.44,17.06.65,34.26.64,51.61-.04,42.14-.04,75.73,0,100.77,0,.46.37.83.83.83h47.82c.35,0,.63.29.63.64v26.65c0,.23-.18.42-.41.42-24.21.08-43.19.07-56.94-.04-5.51-.05-9.58-.34-12.2-.87-3.39-.69-5.24-2.83-5.55-6.4-.29-3.41-.46-6.32-.52-8.75C.63,124.18,1.07,78.11,1.06,5.03c0-.31.24-.56.55-.57Z"/>
  <path class="cls-1" d="M97.33,4.46c7.82-.04,15.4,0,22.35-1.6,1.03-.23,2.06.42,2.29,1.45,0,.03.01.05.02.08.88,4.78,1.39,10.31,1.52,16.59.33,16.03.51,26.37.52,31,.13,59.29.14,107.2.04,143.75,0,.2-.17.37-.37.37h-26.6c-.23,0-.41-.19-.41-.42h0V5.1c0-.35.29-.64.64-.64Z"/>
  <path class="cls-1" d="M236.45,5.04c-.6,6.31-1.22,11.73-1.85,16.25-8.8,62.79-16.6,115.14-23.39,157.03-.37,2.26-1.26,7.94-2.69,17.05-.06.39-.39.68-.78.68-12.46.15-21.95.08-28.48-.21-2.74-.12-5.37-.61-7.88-1.46-1.14-.4-2.02-1.32-2.36-2.47-.55-1.91-1.09-4.46-1.61-7.66-7.64-46.9-15.36-100.82-23.15-161.76-.54-4.23-.85-8.72-.92-13.45-.01-1,.41-1.95,1.15-2.61,5.08-4.58,13.7-4.5,19.32-2,3.38,1.51,5.37,4.21,5.98,8.1,4.63,29.57,9.05,58.72,13.28,87.44,2.05,13.93,4.09,25.22,6.1,33.88.53,2.29,1.22,4.38,2.06,6.25.19.45.72.66,1.17.46.25-.11.43-.32.51-.58,1.1-3.77,1.86-8.02,2.27-12.76,1.31-14.87,2.62-27.03,3.95-36.46,3.61-25.79,7.72-54.01,13.1-80.8.29-1.43.58-2.42.87-2.95.21-.38.57-.67,1-.78,7.04-1.89,12.85-1.97,21.85-1.76.29,0,.51.25.5.54,0,.01,0,.02,0,.03Z"/>
  <path class="cls-1" d="M419.8,196.08c-.17,0-.31-.14-.31-.31h0s-1.41-164.28-1.41-164.28c0-.31-.24-.57-.56-.59l-27.52-1.65c-.36-.02-.64-.32-.64-.69V4.57c0-.27.21-.49.48-.5l84.18-.71c1.59-.02,3.02.97,3.56,2.47.77,2.14,1.26,5.11,1.47,8.91.29,5.48.57,10.21.83,14.2.02.3-.21.56-.51.58-.01,0-.02,0-.03,0h-29.37c-.27,0-.49.22-.49.49h0v165.41c0,.36-.3.66-.66.66h-29.02Z"/>
  <path class="cls-1" d="M592.87,136.49c.77-2.54,1.35-5.27,1.74-8.19,2.28-17.19,4.95-42,8-74.44,1.67-17.77,2.66-30.56,2.98-38.36.06-1.35.55-2.59,1.46-3.72,4.23-5.18,10.06-7.6,17.49-7.26,3.71.17,5.54,2.17,5.47,5.98-.09,5.44-.38,10.95-.87,16.54-5.09,57.83-8.66,96.81-10.73,116.94-3.07,29.98-4.88,47.15-5.43,51.52-.04.34-.33.59-.67.59h-35.39c-.39,0-.72-.29-.77-.67-.06-.43-.17-1.34-.33-2.71-4.57-39.66-8.17-71.32-10.78-94.98-.47-4.24-1.4-8.15-2.8-11.74-.27-.71-1.06-1.07-1.75-.81-.18.07-.34.17-.47.31-.51.51-.81,1.28-.92,2.29-6.75,61.07-10.28,93.31-10.59,96.7-.16,1.71-.36,4.31-.59,7.8-.08,1.18-.87,2.18-2,2.54-2.24.7-4.62,1.08-7.15,1.13-8.85.18-18.3.63-26.85-1.09-.8-.16-1.76-.65-2.88-1.46-.35-.24-.59-.61-.67-1.02-.62-3.07-1.07-5.87-1.34-8.38-6.59-60.45-12.05-115.7-16.37-165.75-.39-4.53-1.06-12.91,4.64-14.35,7.55-1.92,18.75.46,20.36,9.69,1.31,7.51,2.31,14.18,2.98,19.99,5.28,45.54,8.31,71.15,9.08,76.84,1.39,10.28,2.4,17.03,3.03,20.24.08.38.46.63.84.54.28-.06.49-.28.55-.55.33-1.87.82-4.62,1.47-8.24,1.06-5.96,2.29-16.52,3.68-31.68,1.83-19.86,3.73-39.78,5.72-59.75.69-6.9,1.77-13.24,3.24-19.01,1.01-3.99,3.6-6.41,7.75-7.24,5.09-1.03,12.55-2.07,17.53-.24,3.09,1.14,4.9,3.49,5.43,7.04,5.85,39.12,9.86,84.19,15.59,124.93.02.09.1.15.19.14.06,0,.11-.05.13-.11Z"/>
  <path class="cls-1" d="M676.49,195.7c0,.22-.18.39-.4.39h-25.51c-.29,0-.54-.22-.57-.51-.96-9.76-2.14-21.26-2.41-32.35-1.26-53.64-1.26-102.36-1.16-157.83,0-.14.11-.26.25-.28,8.93-1.28,17.8-1.87,26.6-1.78.76,0,1.39.59,1.45,1.35.39,4.51.7,10.28.93,17.29.45,13.87.7,31.03.76,51.5.13,42.82.15,83.56.06,122.22Z"/>
  <path class="cls-1" d="M835.31,110.03c-.13,0-.23.1-.23.23v57.11c0,.47.37.85.84.86l49.35,1.26c.47.01.85.39.87.87l.83,25.36c.01.19-.14.35-.33.36,0,0-.01,0-.02,0h-81.02c-.3,0-.55-.25-.55-.56h0V4.84c0-.27.21-.48.47-.49,36.01-.5,61.01-.86,75.01-1.08,1.29-.02,2.45.29,3.46.92.31.19.55.48.68.82.9,2.41,1.44,4.82,1.61,7.23.42,5.84.75,11.07,1,15.69.02.33-.23.62-.56.67-17.53,2.47-34.53,3.67-51.02,3.6-.34,0-.62.28-.62.62v46.09c0,.33.27.61.61.62l38.54.98c.52.02.93.43.95.94l.8,24.43c0,.23-.15.43-.38.48-13.8,2.6-27.23,3.82-40.29,3.67Z"/>
  <path class="cls-1" d="M786.57,67.89c.02.21-.13.4-.34.42-.01,0-.03,0-.04,0h-26.48c-.4,0-.74-.32-.76-.73-.38-6.91-.93-12.71-1.64-17.38-1.2-7.91-6.22-21.26-16.06-20.47-5.01.41-9.01,5.22-10.28,9.94-.73,2.73-1.22,5.58-1.45,8.56-.42,5.48-.7,12.98-.85,22.5-.37,23.67-.2,46.08.52,67.25.29,8.65.72,15.16,1.27,19.52,1.32,10.38,6.8,11.47,16.44,10.6,5.46-.49,7.71-4.28,8.56-9.19,1.53-8.93,2.7-19.16,3.49-30.69.05-.64.54-1.15,1.18-1.21,7.75-.82,16.11-2.14,23.4-1.13.49.07.9.41,1.05.89.57,1.81.83,3.96.77,6.47-.32,13.27-1.88,26-4.67,38.19-2.28,9.97-9.42,17.53-19.13,21.16-9.2,3.44-17.79,3.65-28.53,3.45-5.92-.1-11.11-.47-16.12-4.15-6.07-4.45-14.23-13.57-15.24-21.72-.67-5.37-1.1-12.93-1.29-22.69-.44-22.21-.63-45.63-.57-70.25.04-15.05.37-28.38.98-39.99.54-10.24,4.72-18.56,12.53-24.96,4-3.28,8.55-5.41,13.65-6.4,10.48-2.04,20.71-1.87,30.69.51,18.18,4.34,23.83,20.98,26.13,37.6.79,5.76,1.72,13.73,2.79,23.9Z"/>
  <path class="cls-1" d="M922.9,187.53c1.62-16.64,32.2-19.85,32.56.71.13,7.52-5.29,12.32-11.53,15.14-2.03.93-4.4.93-6.48.15-7.57-2.83-15.43-6.95-14.55-16Z"/>
</svg>