<?xml version="1.0" encoding="UTF-8"?><svg id="Layer_1" xmlns="http://www.w3.org/2000/svg" viewBox="155 443 695 105"><path d="M165.562,535.48v-81.923h20.076v77.192l-11.308-11.653h48v16.385h-56.769Z" fill="#fff"/><path d="M230.871,535.48v-81.923h20.076v81.923h-20.076Z" fill="#fff"/><path d="M287.293,535.48l-29.653-81.923h20.653l20.654,59.308,20.538-59.308h20.654l-29.77,81.923h-23.077Z" fill="#fff"/><path d="M346.83,535.48v-81.923h58.846v16.385h-38.769v16.269h37.384v16.385h-37.384v16.5h39.692v16.385h-59.77Z" fill="#fff"/><path d="M462.328,535.48v-65.539h-24.23v-16.385h68.653v16.385h-24.23v65.539h-20.192Z" fill="#fff"/><path d="M533.288,535.48l-22.384-81.923h20.884l13.154,54.116,13.384-54.116h16.616l13.499,54.116,13.039-54.116h20.769l-22.153,81.923h-21l-12.462-48.692-12.461,48.692h-20.885Z" fill="#fff"/><path d="M631.133,535.48v-81.923h20.077v81.923h-20.077Z" fill="#fff"/><path d="M700.825,537.326c-7.54,0-14.25-1.692-20.135-5.077-5.884-3.384-10.5-8.249-13.846-14.596-3.346-6.346-5.02-14.02-5.02-23.019,0-8.692,1.596-16.25,4.789-22.673,3.19-6.422,7.748-11.403,13.673-14.942,5.922-3.538,12.883-5.308,20.885-5.308,10.999,0,19.557,2.693,25.673,8.077,6.115,5.385,10.056,13.116,11.826,23.192l-20.884.808c-.848-4.922-2.694-8.77-5.539-11.539-2.847-2.769-6.539-4.154-11.076-4.154-4.001,0-7.405,1.116-10.212,3.346-2.809,2.232-4.924,5.347-6.346,9.346-1.425,4-2.135,8.616-2.135,13.846,0,5.385.75,10.039,2.25,13.961s3.635,6.963,6.403,9.115c2.77,2.154,6.076,3.23,9.923,3.23,5,0,8.865-1.479,11.597-4.441,2.729-2.961,4.479-7.057,5.25-12.289l21,.808c-1.154,6.848-3.347,12.675-6.577,17.481-3.23,4.808-7.462,8.48-12.692,11.019-5.231,2.539-11.501,3.808-18.808,3.808Z" fill="#fff"/><path d="M749.056,535.48v-81.923h58.847v16.385h-38.77v16.269h37.385v16.385h-37.385v16.5h39.692v16.385h-59.77Z" fill="#fff"/><path d="M817.593,535.48v-19.27h20.77v19.27h-20.77Z" fill="#fff"/></svg>